<svg aria-hidden="true" style="position: absolute; width: 0; height: 0; overflow: hidden;" version="1.1"
    xmlns="http://www.w3.org/2000/svg" xmlns:xlink="http://www.w3.org/1999/xlink">
    <defs>
        <symbol id="icon-arrow_right" viewBox="0 0 9 28">
            <path
                d="M9.297 15c0 0.125-0.063 0.266-0.156 0.359l-7.281 7.281c-0.094 0.094-0.234 0.156-0.359 0.156s-0.266-0.063-0.359-0.156l-0.781-0.781c-0.094-0.094-0.156-0.219-0.156-0.359 0-0.125 0.063-0.266 0.156-0.359l6.141-6.141-6.141-6.141c-0.094-0.094-0.156-0.234-0.156-0.359s0.063-0.266 0.156-0.359l0.781-0.781c0.094-0.094 0.234-0.156 0.359-0.156s0.266 0.063 0.359 0.156l7.281 7.281c0.094 0.094 0.156 0.234 0.156 0.359z">
            </path>
        </symbol>
        <symbol id="icon-black_arrow_right" viewBox="0 0 32 32">
            <path
                d="M5.333 15.634c0-0.506 0.376-0.925 0.864-0.991l0.136-0.009h20c0.552 0 1 0.448 1 1 0 0.506-0.376 0.925-0.864 0.991l-0.136 0.009h-20c-0.552 0-1-0.448-1-1z">
            </path>
            <path
                d="M17.561 8.31c-0.391-0.39-0.393-1.023-0.003-1.414 0.354-0.356 0.91-0.389 1.302-0.1l0.112 0.097 8.067 8.032c0.357 0.355 0.389 0.913 0.097 1.305l-0.097 0.112-8.067 8.033c-0.391 0.39-1.024 0.388-1.414-0.003-0.354-0.356-0.385-0.911-0.094-1.302l0.097-0.112 7.355-7.325-7.355-7.323z">
            </path>
        </symbol>
        <symbol id="icon-close_button" viewBox="0 0 32 32">
            <path
                d="M5.636 5.636c0.403-0.403 1.057-0.403 1.46 0l8.904 8.904 8.905-8.904c0.403-0.403 1.057-0.403 1.46 0s0.403 1.057 0 1.46l-8.904 8.905 8.904 8.905c0.403 0.403 0.403 1.057 0 1.46s-1.057 0.403-1.46 0l-8.905-8.904-8.905 8.904c-0.403 0.403-1.057 0.403-1.46 0s-0.403-1.057 0-1.46l8.904-8.905-8.904-8.905c-0.403-0.403-0.403-1.057 0-1.46z">
            </path>
        </symbol>
        <symbol id="icon-facebook_icon" viewBox="0 0 32 32">
            <path fill="#3b5999" style="fill: var(--color1, #3b5999)"
                d="M21.329 5.313h2.921v-5.088c-0.504-0.069-2.237-0.225-4.256-0.225-9.243 0-6.728 10.467-7.096 12h-4.649v5.688h4.648v14.312h5.699v-14.311h4.46l0.708-5.688h-5.169c0.251-3.765-1.015-6.688 2.735-6.688z">
            </path>
        </symbol>
        <symbol id="icon-facebook_mini_icon" viewBox="0 0 32 32">
            <path
                d="M12 10.667h-4v5.333h4v16h6.667v-16h4.8l0.533-5.333h-5.333v-2.267c0-1.2 0.267-1.733 1.467-1.733h3.867v-6.667h-5.067c-4.8 0-6.933 2.133-6.933 6.133v4.533z">
            </path>
        </symbol>
        <symbol id="icon-geo_icon" viewBox="0 0 32 32">
            <path stroke-linejoin="round" stroke-linecap="round" stroke-miterlimit="4" stroke-width="2.4"
                d="M19.347 14.281c0-1.842-1.492-3.334-3.334-3.334-1.84 0-3.333 1.492-3.333 3.334 0 1.84 1.492 3.333 3.333 3.333 1.842 0 3.334-1.492 3.334-3.333z">
            </path>
            <path stroke-linejoin="round" stroke-linecap="round" stroke-miterlimit="4" stroke-width="2.4"
                d="M15.999 28c-3.864 0-9.999-6.722-9.999-13.868 0-5.595 4.476-10.132 9.999-10.132s10.001 4.537 10.001 10.132c0 7.147-6.135 13.868-10.001 13.868z">
            </path>
        </symbol>
        <symbol id="icon-google_icon" viewBox="0 0 32 32">
            <path fill="#59c36a" style="fill: var(--color2, #59c36a)"
                d="M26.294 28.169c-2.775 2.344-6.375 3.831-10.294 3.831-5.831 0-10.95-3.212-13.725-7.9l1.039-4.789 4.605-0.855c1.069 3.45 4.294 5.981 8.081 5.981 1.837 0 3.544-0.581 4.95-1.612l4.425 0.675 0.919 4.669z">
            </path>
            <path fill="#00a66c" style="fill: var(--color3, #00a66c)"
                d="M26.294 28.169l-0.919-4.669-4.425-0.675c-1.406 1.031-3.112 1.613-4.95 1.613v7.562c3.919 0 7.519-1.488 10.294-3.831z">
            </path>
            <path fill="#ffda2d" style="fill: var(--color4, #ffda2d)"
                d="M7.563 16c0 0.862 0.131 1.687 0.356 2.456l-5.644 5.644c-1.406-2.363-2.275-5.138-2.275-8.1s0.869-5.738 2.275-8.1l4.53 0.78 1.114 4.864c-0.225 0.769-0.356 1.594-0.356 2.456z">
            </path>
            <path fill="#4086f4" style="fill: var(--color5, #4086f4)"
                d="M32 16c0 4.875-2.256 9.244-5.706 12.169l-5.344-5.344c1.087-0.788 2.006-1.838 2.606-3.075h-7.556c-0.525 0-0.938-0.412-0.938-0.937v-5.625c0-0.525 0.412-0.938 0.938-0.938h14.8c0.45 0 0.844 0.319 0.919 0.769 0.188 0.975 0.281 1.988 0.281 2.981z">
            </path>
            <path fill="#4175df" style="fill: var(--color6, #4175df)"
                d="M23.556 19.75c-0.6 1.237-1.519 2.288-2.606 3.075l5.344 5.344c3.45-2.925 5.706-7.294 5.706-12.169 0-0.994-0.094-2.006-0.281-2.981-0.075-0.45-0.469-0.769-0.919-0.769h-14.8v7.5h7.556z">
            </path>
            <path fill="#ff641a" style="fill: var(--color7, #ff641a)"
                d="M26.556 4.469c0.019 0.263-0.094 0.506-0.262 0.694l-4.012 3.994c-0.319 0.338-0.844 0.375-1.219 0.094-1.481-1.106-3.225-1.687-5.063-1.687-3.788 0-7.013 2.531-8.081 5.981l-5.644-5.644c2.775-4.688 7.894-7.9 13.725-7.9 3.731 0 7.369 1.375 10.219 3.775 0.206 0.169 0.319 0.431 0.337 0.694z">
            </path>
            <path fill="#f03800" style="fill: var(--color8, #f03800)"
                d="M21.063 9.25c0.375 0.281 0.9 0.244 1.219-0.094l4.013-3.994c0.169-0.187 0.281-0.431 0.262-0.694s-0.131-0.525-0.337-0.694c-2.85-2.4-6.488-3.775-10.219-3.775v7.563c1.837 0 3.581 0.581 5.063 1.687z">
            </path>
        </symbol>
        <symbol id="icon-greenshop_logo" viewBox="0 0 32 32">
            <path fill="#46a358" style="fill: var(--color9, #46a358)"
                d="M3.659 12.267c-2.021 0-3.659 1.638-3.659 3.659 0 1.892 1.437 3.449 3.279 3.639-0.111-0.916-0.070-1.665 0.072-2.281-0.079-0.382-0.26-0.948-0.668-1.35 0 0 0.269 0.404 0.415 0.946 0 0.001 0.001 0.002 0.001 0.003 0.016 0.058 0.029 0.116 0.041 0.177 0.003 0.014 0.005 0.028 0.008 0.042 0.011 0.062 0.022 0.124 0.028 0.188-2.067-0.254-2.508-2.109-2.46-2.808 2.199 0.122 2.65 1.59 2.715 2.5 0.72-2.359 3.008-2.495 3.197-2.5 0.082 1.813-1.263 3.227-2.87 3.35 0.010-0.049 0.022-0.098 0.035-0.147 0.003-0.015 0.008-0.028 0.012-0.043 0.009-0.035 0.019-0.069 0.030-0.104 0.004-0.015 0.009-0.030 0.014-0.045 0.012-0.038 0.025-0.075 0.038-0.113 0.003-0.009 0.006-0.017 0.010-0.026 0.016-0.045 0.034-0.088 0.051-0.131 0.002-0.003 0.003-0.008 0.004-0.011 0 0 0 0 0.001 0 0.412-0.997 1.173-1.65 1.173-1.65-1.493 0.863-1.745 3.105-1.784 4.006 0.105 0.009 0.21 0.016 0.318 0.016 2.021 0 3.659-1.638 3.659-3.659s-1.638-3.659-3.659-3.659z">
            </path>
            <path fill="#46a358" style="fill: var(--color9, #46a358)"
                d="M9.963 14.559c0.484 0 0.879 0.208 1.135 0.587l-0.48 0.408c-0.172-0.24-0.38-0.364-0.668-0.364-0.443 0-0.719 0.292-0.719 0.736 0 0.452 0.292 0.756 0.76 0.756 0.252 0 0.452-0.088 0.58-0.235v-0.124h-0.616v-0.592h1.303v0.831c-0.124 0.22-0.3 0.396-0.528 0.531-0.228 0.132-0.484 0.2-0.768 0.2-0.792 0.012-1.446-0.604-1.435-1.367-0.012-0.759 0.643-1.379 1.435-1.367z">
            </path>
            <path fill="#46a358" style="fill: var(--color9, #46a358)"
                d="M13.218 17.244l-0.595-0.819h-0.284v0.819h-0.687v-2.637h1.035c0.587 0 1.019 0.36 1.019 0.907 0 0.323-0.156 0.592-0.416 0.751l0.695 0.979h-0.768zM12.338 15.825h0.352c0.191 0 0.316-0.124 0.316-0.311s-0.124-0.308-0.316-0.308h-0.352v0.619z">
            </path>
            <path fill="#46a358" style="fill: var(--color9, #46a358)"
                d="M14.258 14.607h1.83v0.619h-1.143v0.364h0.815v0.575h-0.815v0.46h1.191v0.619h-1.879v-2.637z"></path>
            <path fill="#46a358" style="fill: var(--color9, #46a358)"
                d="M16.564 14.607h1.83v0.619h-1.143v0.364h0.815v0.575h-0.815v0.46h1.191v0.619h-1.878v-2.637z"></path>
            <path fill="#46a358" style="fill: var(--color9, #46a358)"
                d="M21.209 14.607v2.686h-0.22l-1.431-1.387v1.339h-0.687v-2.686h0.22l1.431 1.367v-1.319h0.687z"></path>
            <path fill="#46a358" style="fill: var(--color9, #46a358)"
                d="M22.030 16.349c0.156 0.208 0.32 0.34 0.587 0.34 0.18 0 0.272-0.064 0.272-0.192 0-0.116-0.060-0.152-0.268-0.244l-0.272-0.12c-0.436-0.192-0.668-0.44-0.668-0.795 0-0.467 0.384-0.78 0.923-0.78 0.435 0 0.743 0.208 0.903 0.531l-0.46 0.352c-0.128-0.191-0.248-0.279-0.436-0.279-0.144 0-0.236 0.056-0.236 0.168 0 0.096 0.056 0.148 0.228 0.216l0.304 0.128c0.46 0.192 0.675 0.424 0.675 0.795 0 0.511-0.42 0.824-0.968 0.824-0.475 0-0.859-0.228-1.051-0.592l0.466-0.351z">
            </path>
            <path fill="#46a358" style="fill: var(--color9, #46a358)"
                d="M23.977 14.607h0.687v0.963h0.963v-0.963h0.687v2.637h-0.687v-1.055h-0.963v1.055h-0.687v-2.637z">
            </path>
            <path fill="#46a358" style="fill: var(--color9, #46a358)"
                d="M28.127 14.558c0.768-0.016 1.443 0.612 1.427 1.367 0.016 0.763-0.659 1.379-1.427 1.367-0.771 0.012-1.435-0.604-1.419-1.367-0.016-0.756 0.648-1.383 1.419-1.367zM28.13 15.19c-0.423 0-0.719 0.3-0.719 0.736 0 0.22 0.068 0.399 0.2 0.536 0.132 0.132 0.308 0.2 0.519 0.2 0.408 0 0.719-0.296 0.719-0.736 0.001-0.436-0.311-0.736-0.719-0.736z">
            </path>
            <path fill="#46a358" style="fill: var(--color9, #46a358)"
                d="M29.946 14.607h1.035c0.587 0 1.019 0.36 1.019 0.907 0 0.54-0.443 0.911-1.019 0.911h-0.348v0.819h-0.687v-2.637zM30.985 15.825c0.191 0 0.316-0.124 0.316-0.311s-0.124-0.308-0.316-0.308h-0.352v0.619h0.352z">
            </path>
        </symbol>
        <symbol id="icon-eye-hidden" viewBox="0 0 32 32">
            <path
                d="M8.109 20.891c-3.492-2.061-5.109-4.891-5.109-4.891s4-7 13-7c1.305 0 2.504 0.147 3.601 0.399l-0.85 0.85c-0.855-0.158-1.772-0.248-2.752-0.248-8 0-11.8 6-11.8 6s1.515 2.392 4.645 4.155l-0.736 0.736zM12.399 22.601c1.097 0.252 2.297 0.399 3.601 0.399 9 0 13-7 13-7s-1.617-2.83-5.109-4.891l-0.736 0.736c3.13 1.763 4.645 4.155 4.645 4.155s-3.8 6-11.8 6c-0.98 0-1.897-0.090-2.752-0.248l-0.85 0.85zM19.899 15.101c0.066 0.289 0.101 0.59 0.101 0.899 0 2.209-1.791 4-4 4-0.309 0-0.61-0.035-0.899-0.101l0.899-0.899c0.768 0 1.536-0.293 2.121-0.879s0.879-1.354 0.879-2.121l0.899-0.899zM16.899 12.101c-0.289-0.066-0.59-0.101-0.899-0.101-2.209 0-4 1.791-4 4 0 0.309 0.035 0.61 0.101 0.899l0.899-0.899c0-0.768 0.293-1.536 0.879-2.121s1.354-0.879 2.121-0.879l0.899-0.899zM24 7l-17 17 1 1 17-17-1-1z">
            </path>
        </symbol>
        <symbol id="icon-instagram_icon" viewBox="0 0 32 32">
            <path
                d="M16 2.933c4.267 0 4.8 0 6.533 0.133 4.4 0.133 6.4 2.267 6.533 6.533 0.133 1.733 0.133 2.133 0.133 6.4s0 4.8-0.133 6.4c-0.133 4.267-2.267 6.4-6.533 6.533-1.733 0.133-2.133 0.133-6.533 0.133-4.267 0-4.8 0-6.4-0.133-4.4-0.133-6.4-2.267-6.533-6.533-0.133-1.733-0.133-2.133-0.133-6.4s0-4.8 0.133-6.4c0.133-4.267 2.267-6.4 6.533-6.533 1.6-0.133 2.133-0.133 6.4-0.133zM16 0c-4.4 0-4.933 0-6.533 0.133-5.867 0.267-9.067 3.467-9.333 9.333-0.133 1.6-0.133 2.133-0.133 6.533s0 4.933 0.133 6.533c0.267 5.867 3.467 9.067 9.333 9.333 1.6 0.133 2.133 0.133 6.533 0.133s4.933 0 6.533-0.133c5.867-0.267 9.067-3.467 9.333-9.333 0.133-1.6 0.133-2.133 0.133-6.533s0-4.933-0.133-6.533c-0.267-5.867-3.467-9.067-9.333-9.333-1.6-0.133-2.133-0.133-6.533-0.133zM16 7.733c-4.533 0-8.267 3.733-8.267 8.267s3.733 8.267 8.267 8.267c4.533 0 8.267-3.733 8.267-8.267s-3.733-8.267-8.267-8.267zM16 21.333c-2.933 0-5.333-2.4-5.333-5.333s2.4-5.333 5.333-5.333c2.933 0 5.333 2.4 5.333 5.333s-2.4 5.333-5.333 5.333zM24.533 5.6c-1.067 0-1.867 0.8-1.867 1.867s0.8 1.867 1.867 1.867c1.067 0 1.867-0.8 1.867-1.867s-0.8-1.867-1.867-1.867z">
            </path>
        </symbol>
        <symbol id="icon-like_img" viewBox="0 0 32 32">
            <path
                d="M16 30.22c-0.456 0-0.895-0.165-1.237-0.465-1.293-1.13-2.539-2.193-3.639-3.13l-0.006-0.005c-3.224-2.747-6.008-5.12-7.945-7.457-2.165-2.613-3.174-5.090-3.174-7.796 0-2.629 0.902-5.055 2.539-6.831 1.657-1.797 3.929-2.786 6.401-2.786 1.847 0 3.539 0.584 5.028 1.736 0.751 0.581 1.433 1.293 2.033 2.123 0.6-0.83 1.281-1.541 2.033-2.123 1.489-1.152 3.181-1.736 5.028-1.736 2.471 0 4.744 0.99 6.401 2.786 1.637 1.776 2.538 4.201 2.538 6.831 0 2.706-1.008 5.184-3.174 7.796-1.937 2.337-4.721 4.71-7.944 7.457-1.102 0.939-2.35 2.002-3.646 3.136-0.342 0.299-0.781 0.464-1.237 0.464zM8.939 3.624c-1.942 0-3.725 0.775-5.023 2.182-1.317 1.428-2.042 3.403-2.042 5.56 0 2.276 0.846 4.312 2.743 6.6 1.833 2.212 4.56 4.536 7.717 7.227l0.006 0.005c1.104 0.941 2.355 2.007 3.657 3.146 1.31-1.141 2.563-2.209 3.669-3.151 3.157-2.691 5.884-5.014 7.717-7.226 1.896-2.289 2.742-4.324 2.742-6.6 0-2.157-0.725-4.132-2.042-5.56-1.297-1.407-3.081-2.182-5.023-2.182-1.422 0-2.728 0.452-3.881 1.344-1.028 0.795-1.744 1.8-2.163 2.503-0.216 0.362-0.596 0.577-1.016 0.577s-0.801-0.216-1.016-0.577c-0.419-0.703-1.135-1.708-2.163-2.503-1.153-0.892-2.459-1.344-3.881-1.344z">
            </path>
        </symbol>
        <symbol id="icon-linkedin_icon" viewBox="0 0 32 32">
            <path
                d="M6.667 3.333c0 1.867-1.467 3.333-3.333 3.333s-3.333-1.467-3.333-3.333c0-1.867 1.467-3.333 3.333-3.333s3.333 1.467 3.333 3.333zM6.667 9.333h-6.667v21.333h6.667v-21.333zM17.333 9.333h-6.667v21.333h6.667v-11.2c0-6.267 8-6.8 8 0v11.2h6.667v-13.467c0-10.533-11.867-10.133-14.667-4.933v-2.933z">
            </path>
        </symbol>
        <symbol id="icon-log-out" viewBox="0 0 20 20">
            <path d="M19 10l-6-5v3h-7v4h7v3l6-5zM3 3h8v-2h-8c-1.1 0-2 0.9-2 2v14c0 1.1 0.9 2 2 2h8v-2h-8v-14z"></path>
        </symbol>
        <symbol id="icon-message_icon" viewBox="0 0 32 32">
            <path stroke-linejoin="round" stroke-linecap="round" stroke-miterlimit="4" stroke-width="2.4"
                d="M23.393 12.025c0 0-4.28 5.137-7.411 5.137-3.129 0-7.457-5.137-7.457-5.137"></path>
            <path stroke-linejoin="round" stroke-linecap="round" stroke-miterlimit="4" stroke-width="2.4"
                d="M3.269 15.958c0-9.117 3.175-12.156 12.698-12.156s12.698 3.038 12.698 12.156c0 9.116-3.175 12.156-12.698 12.156s-12.698-3.040-12.698-12.156z">
            </path>
        </symbol>
        <symbol id="icon-sale_img" viewBox="0 0 32 32">
            <path
                d="M22.87 26.999h-9.685c-4.135 0-7.499-3.364-7.499-7.499v-7.686c0-3.844-1.916-7.401-5.125-9.517-0.576-0.38-0.735-1.155-0.355-1.731s1.155-0.736 1.731-0.355c1.832 1.208 3.318 2.801 4.381 4.635 0.23 0.257 2.081 2.22 5.117 2.22h14.392c3.926-0.073 7 3.867 5.973 7.657l-1.657 6.603c-0.838 3.341-3.829 5.674-7.273 5.674zM7.871 8.859c0.208 0.96 0.315 1.95 0.315 2.956v7.686c0 2.756 2.243 4.999 4.999 4.999h9.685c2.296 0 4.29-1.556 4.849-3.783l1.657-6.603c0.61-2.252-1.216-4.593-3.549-4.549h-14.392c-1.373 0-2.568-0.296-3.565-0.706zM12.56 30.436c0-0.863-0.699-1.562-1.562-1.562-2.073 0.083-2.071 3.043 0 3.124 0.863 0 1.562-0.7 1.562-1.562zM24.996 30.436c0-0.863-0.699-1.562-1.562-1.562-2.073 0.083-2.071 3.043 0 3.124 0.863 0 1.562-0.7 1.562-1.562zM27.077 13.314c0-0.69-0.56-1.25-1.25-1.25h-13.892c-1.658 0.066-1.657 2.434 0 2.5h13.892c0.69 0 1.25-0.56 1.25-1.25z">
            </path>
        </symbol>
        <symbol id="icon-search_img" viewBox="0 0 32 32">
            <path
                d="M23.305 25.604c-6.392 5.094-15.328 3.684-20.061-2.158-4.568-5.64-4.283-13.777 0.673-18.926 5.121-5.321 13.171-6.031 19.007-1.666 2.091 1.563 3.652 3.552 4.669 5.96 1.023 2.421 1.334 4.941 0.979 7.539-0.354 2.586-1.386 4.891-3.065 7.042 0.136 0.089 0.281 0.153 0.385 0.257 1.846 1.838 3.685 3.683 5.531 5.521 0.438 0.436 0.655 0.943 0.526 1.554-0.258 1.217-1.706 1.686-2.635 0.851-0.436-0.391-0.836-0.821-1.25-1.235-1.516-1.515-3.032-3.032-4.548-4.547-0.063-0.060-0.129-0.116-0.211-0.192zM25.525 14.378c0.016-6.176-4.97-11.168-11.159-11.178-6.173-0.009-11.155 4.944-11.181 11.116-0.027 6.191 4.949 11.198 11.158 11.226 6.148 0.029 11.167-4.983 11.183-11.165z">
            </path>
        </symbol>
        <symbol id="icon-tel_icon" viewBox="0 0 32 32">
            <path stroke-linejoin="round" stroke-linecap="round" stroke-miterlimit="4" stroke-width="2.4"
                d="M19.137 3.667c4.935 0.548 8.833 4.441 9.388 9.376"></path>
            <path stroke-linejoin="round" stroke-linecap="round" stroke-miterlimit="4" stroke-width="2.4"
                d="M19.137 8.391c2.361 0.459 4.207 2.305 4.667 4.667"></path>
            <path stroke-linejoin="round" stroke-linecap="round" stroke-miterlimit="4" stroke-width="2.4"
                d="M10.267 21.732c-9.197-9.198-7.889-13.41-6.92-14.768 0.125-0.219 3.195-4.815 6.485-2.119 8.168 6.727-2.173 5.776 4.686 12.636 6.86 6.859 5.908-3.482 12.635 4.685 2.696 3.292-1.9 6.362-2.117 6.485-1.357 0.971-5.571 2.279-14.77-6.92z">
            </path>
        </symbol>
        <symbol id="icon-twitter_icon" viewBox="0 0 32 32">
            <path
                d="M10.064 29.007c12.076 0 18.68-10.005 18.68-18.68 0-0.284-0.006-0.567-0.019-0.849 1.282-0.927 2.396-2.083 3.275-3.399-1.176 0.523-2.442 0.875-3.77 1.033 1.355-0.813 2.396-2.099 2.887-3.632-1.269 0.752-2.674 1.299-4.169 1.594-1.199-1.276-2.905-2.074-4.793-2.074-3.626 0-6.567 2.94-6.567 6.565 0 0.515 0.058 1.016 0.17 1.497-5.456-0.274-10.294-2.887-13.532-6.859-0.565 0.97-0.889 2.097-0.889 3.3 0 2.278 1.159 4.288 2.922 5.465-1.077-0.033-2.089-0.329-2.974-0.821-0.001 0.027-0.001 0.055-0.001 0.084 0 3.18 2.263 5.835 5.267 6.436-0.551 0.15-1.132 0.231-1.731 0.231-0.423 0-0.834-0.042-1.234-0.118 0.836 2.608 3.26 4.506 6.133 4.56-2.247 1.761-5.078 2.81-8.154 2.81-0.53 0-1.052-0.030-1.566-0.091 2.905 1.862 6.355 2.949 10.064 2.949z">
            </path>
        </symbol>
        <symbol id="icon-union_icon" viewBox="0 0 32 32">
            <path
                d="M25.542 11.671l0.005 0.001c0 0-0.001-0-0.002-0.001s-0.002-0-0.002-0.001zM7.283 11.548c4.367-0.271 12.503-0.271 16.871 0l0.001 0.013c0.105 1.066 0.148 2.488 0.148 4.471 0 1.959-0.041 3.381-0.145 4.456-4.46 0.177-12.417 0.177-16.878 0-0.104-1.064-0.146-2.482-0.146-4.456 0-1.984 0.042-3.405 0.148-4.471l0.001-0.013zM25.671 20.398c0 0-0.003 0.001-0.009 0.002l0.009-0.002zM5.891 20.392l0.005 0.001c-0.003-0.001-0.005-0.001-0.005-0.001zM0 16.032c0 8.121 0.655 11.134 5.763 11.527 4.716 0.262 15.195 0.262 19.91 0 5.109-0.262 5.764-3.406 5.764-11.527s-0.655-11.134-5.764-11.527c-4.716-0.393-15.195-0.393-19.91 0-5.109 0.393-5.763 3.406-5.763 11.527zM5.891 11.673c-0-0 0.002-0 0.005-0.001l-0.005 0.001zM16.475 18.929c-2.153 1.077-4.686-0.489-4.686-2.896s2.533-3.973 4.686-2.896c2.387 1.193 2.387 4.599 0 5.793z">
            </path>
        </symbol>
        <symbol id="icon-white_arrow_right" viewBox="0 0 32 32">
            <path stroke-linejoin="round" stroke-linecap="round" stroke-miterlimit="4" stroke-width="2.6667"
                d="M26.334 15.634h-20"></path>
            <path stroke-linejoin="round" stroke-linecap="round" stroke-miterlimit="4" stroke-width="2.6667"
                d="M18.266 7.602c0 0 8.067 4.348 8.067 8.031 0 3.685-8.067 8.035-8.067 8.035"></path>
        </symbol>
    </defs>
</svg>